<svg width="24" height="24" viewBox="0 0 24 24" data-glyph="game-type-puzzle" aria-hidden="true" xmlns="http://www.w3.org/2000/svg">
	<defs>
		<linearGradient id="puzzleGrad" x1="0%" y1="100%" x2="100%" y2="0%">
			<stop offset="0%" stop-color="#FA742C" />
			<stop offset="60%" stop-color="#F9A33A" />
			<stop offset="100%" stop-color="#F7C631" />
		</linearGradient>
	</defs>
	<path fill="url(#puzzleGrad)" d="M10.03 21.8999L2.12999 13.9999C0.699991 12.5699 0.699991 11.6299 2.09999 10.1699L4.12999 8.06994C4.52999 7.66994 4.95999 7.43994 5.49999 7.96994C6.12999 8.66994 6.12999 9.99994 6.96999 10.8399C8.03999 11.8399 9.76999 11.8399 10.77 10.7099C11.77 9.67994 11.77 8.07994 10.77 7.10994C9.89999 6.20994 8.43999 6.37994 7.79999 5.80994C7.19999 5.20994 7.46999 4.77994 7.86999 4.33994L9.99999 2.20994C11.43 0.779944 12.37 0.779944 13.8 2.17994L16 4.34994C16.43 4.77994 16.8 4.87994 17.23 4.51994C17.83 3.94994 17.66 2.74994 18.63 1.74994C19.7 0.819944 21.2 0.879944 22.2 1.84994C23.17 2.81994 23.2 4.34994 22.27 5.41994C21.3 6.34994 20.04 6.18994 19.5 6.78994C19.13 7.18994 19.2 7.58994 19.63 7.98994L21.83 10.2199C23.23 11.6499 23.23 12.5899 21.8 13.9899L13.83 21.9599C12.4 23.3599 11.46 23.3599 10.03 21.9299V21.8999Z"/>
</svg>